# xmcd
# Track frame offsets:
# 150
# 17598
# 32721
# 42294
# 59067
# 75015
# 88938
# 106386
# 123009
# 140157
#
# Disc length: 2137 seconds
# Revision: 0
# Processed by: cddbd v1.5.2PL0 Copyright (c) Steve Scherf et al.
# Submitted via: VisiTrax 2.11.3.279 - For more info visit www.synapsa.com
#
DISCID=7c08570a
DTITLE=Adele - 19 Expanded Edition Bonus Disc [CD2]
DYEAR=2008
DGENRE=
TTITLE0=Chasing Pavements
TTITLE1=Melt My Heart To Stone
TTITLE2=That's It, I Quit, I'm Moving On
TTITLE3=Crazy For You
TTITLE4=Right As Rain
TTITLE5=My Same
TTITLE6=Make You Feel My Love
TTITLE7=Daydreamer
TTITLE8=Hometown Glory
TTITLE9=Many Shades Of Black (Bonus Track)
EXTD=
EXTT0=
EXTT1=
EXTT2=
EXTT3=
EXTT4=
EXTT5=
EXTT6=
EXTT7=
EXTT8=
EXTT9=
PLAYORDER=
